HIERARCHY
ROOT root
{
  OFFSET 0 93.2929 0
  CHANNELS 6 Xposition Yposition Zposition Zrotation Xrotation Yrotation
  JOINT torso_1
  {
    OFFSET 0 5.07867 -1.15138
    CHANNELS 6 Xposition Yposition Zposition Zrotation Xrotation Yrotation
    JOINT torso_2
    {
      OFFSET 0 5.61661 1.07143
      CHANNELS 6 Xposition Yposition Zposition Zrotation Xrotation Yrotation
      JOINT torso_3
      {
        OFFSET -1.02604e-17 5.98978 0.11501
        CHANNELS 6 Xposition Yposition Zposition Zrotation Xrotation Yrotation
        JOINT torso_4
        {
          OFFSET -1.10457e-17 6.50583 -0.443523
          CHANNELS 6 Xposition Yposition Zposition Zrotation Xrotation Yrotation
          JOINT torso_5
          {
            OFFSET -1.97295e-17 7.60548 -1.50593
            CHANNELS 6 Xposition Yposition Zposition Zrotation Xrotation Yrotation
            JOINT torso_6
            {
              OFFSET -2.53307e-17 9.49737 -0.914492
              CHANNELS 6 Xposition Yposition Zposition Zrotation Xrotation Yrotation
              JOINT torso_7
              {
                OFFSET -2.90401e-17 10.5513 1.57691
                CHANNELS 6 Xposition Yposition Zposition Zrotation Xrotation Yrotation
                JOINT neck_1
                {
                  OFFSET -1.29193e-17 4.78644 0.715339
                  CHANNELS 6 Xposition Yposition Zposition Zrotation Xrotation Yrotation
                  JOINT neck_2
                  {
                    OFFSET -1.8116e-17 4.82109 0.421791
                    CHANNELS 6 Xposition Yposition Zposition Zrotation Xrotation Yrotation
                    JOINT head
                    {
                      OFFSET -2.00958e-17 4.83041 0.765062
                      CHANNELS 6 Xposition Yposition Zposition Zrotation Xrotation Yrotation
                      End Site
                      {
                        OFFSET 0 0.1 0
                      }
                    }
                  }
                }
                JOINT l_shoulder
                {
                  OFFSET 1.23299 -7.60731 7.53374
                  CHANNELS 6 Xposition Yposition Zposition Zrotation Xrotation Yrotation
                  JOINT l_up_arm
                  {
                    OFFSET 12.9547 3.2495 -3.26872
                    CHANNELS 6 Xposition Yposition Zposition Zrotation Xrotation Yrotation
                    JOINT l_low_arm
                    {
                      OFFSET 29.2081 0.0598081 0.137039
                      CHANNELS 6 Xposition Yposition Zposition Zrotation Xrotation Yrotation
                      JOINT l_hand
                      {
                        OFFSET 24.234 0.0496219 0.113701
                        CHANNELS 6 Xposition Yposition Zposition Zrotation Xrotation Yrotation
                        End Site
                        {
                          OFFSET 0.1 0 0
                        }
                      }
                    }
                  }
                }
                JOINT r_shoulder
                {
                  OFFSET -1.23299 -7.60729 7.53365
                  CHANNELS 6 Xposition Yposition Zposition Zrotation Xrotation Yrotation
                  JOINT r_up_arm
                  {
                    OFFSET -12.9547 3.2495 -3.26872
                    CHANNELS 6 Xposition Yposition Zposition Zrotation Xrotation Yrotation
                    JOINT r_low_arm
                    {
                      OFFSET -29.2081 0.0598081 0.137039
                      CHANNELS 6 Xposition Yposition Zposition Zrotation Xrotation Yrotation
                      JOINT r_hand
                      {
                        OFFSET -24.234 0.0496218 0.113702
                        CHANNELS 6 Xposition Yposition Zposition Zrotation Xrotation Yrotation
                        End Site
                        {
                          OFFSET -0.1 0 0
                        }
                      }
                    }
                  }
                }
              }
            }
          }
        }
      }
    }
  }
  JOINT l_up_leg
  {
    OFFSET 9.23673 -4.20556 2.0327
    CHANNELS 6 Xposition Yposition Zposition Zrotation Xrotation Yrotation
    JOINT l_low_leg
    {
      OFFSET -0.852353 -38.7721 -0.655187
      CHANNELS 6 Xposition Yposition Zposition Zrotation Xrotation Yrotation
      JOINT l_foot
      {
        OFFSET -2.32622 -40.4017 -6.04875
        CHANNELS 6 Xposition Yposition Zposition Zrotation Xrotation Yrotation
        JOINT l_toes
        {
          OFFSET 0.779096 -9.8844 12.4959
          CHANNELS 6 Xposition Yposition Zposition Zrotation Xrotation Yrotation
          End Site
          {
            OFFSET 0 0 0.1
          }
        }
      }
    }
  }
  JOINT r_up_leg
  {
    OFFSET -9.23673 -4.20556 2.0327
    CHANNELS 6 Xposition Yposition Zposition Zrotation Xrotation Yrotation
    JOINT r_low_leg
    {
      OFFSET 0.852353 -38.7721 -0.655187
      CHANNELS 6 Xposition Yposition Zposition Zrotation Xrotation Yrotation
      JOINT r_foot
      {
        OFFSET 2.32622 -40.4017 -6.04875
        CHANNELS 6 Xposition Yposition Zposition Zrotation Xrotation Yrotation
        JOINT r_toes
        {
          OFFSET -0.779096 -9.8844 12.4959
          CHANNELS 6 Xposition Yposition Zposition Zrotation Xrotation Yrotation
          End Site
          {
            OFFSET 0 0 0.1
          }
        }
      }
    }
  }
}
MOTION
Frames: 5
Frame Time: 0.016667
16.1533 92.9627 65.1674 -2.30007 0.224085 -56.3904 0 5.07867 -1.15138 -0.807399 -1.71534 -0.925106 0 5.61661 1.07143 -0.293959 -0.561673 -1.23736 -1.02604e-17 5.98978 0.11501 0.0719635 0.901934 -1.19184 -1.10457e-17 6.50583 -0.443523 0.435544 2.8367 -1.25069 -1.97295e-17 7.60548 -1.50593 0.487803 3.25186 -1.32372 -2.53307e-17 9.49737 -0.914492 0.328183 3.76121 -1.52969 -2.90401e-17 10.5513 1.57691 -0.0332927 0.82512 0.0919937 -1.29193e-17 4.78644 0.715339 -0.671948 -4.13596 -3.17593 -1.8116e-17 4.82109 0.421791 -1.08186 -5.40327 -1.5384 -2.00958e-17 4.83041 0.765062 0.537701 -2.49139 1.42135 1.23299 -7.60731 7.53374 1.16621 -0.677919 -0.753884 12.9547 3.2495 -3.26872 -14.5111 46.1813 -66.6139 29.2081 0.0598081 0.137039 11.8138 -14.2124 -101.214 24.234 0.0496219 0.113701 -3.11849 -5.321 -0.00676229 -1.23299 -7.60729 7.53365 -4.59582 -2.17089 2.82292 -12.9547 3.2495 -3.26872 25.2932 50.7711 49.3952 -29.2081 0.0598081 0.137039 -11.3759 -15.799 109.25 -24.234 0.0496218 0.113702 3.4912 -26.547 3.27938 9.23673 -4.20556 2.0327 4.92133 -1.32927 -0.333235 -0.852353 -38.7721 -0.655187 -0.248194 0.926571 -0.0141663 -2.32622 -40.4017 -6.04875 -1.66943 -0.780512 15.4307 0.779096 -9.8844 12.4959 -8.32772e-18 -7.96175e-16 1.34608e-17 -9.23673 -4.20556 2.0327 -3.88775 2.1855 13.2496 0.852353 -38.7721 -0.655187 0.494539 1.84678 0.0242663 2.32622 -40.4017 -6.04875 1.37851 -0.63123 -15.4098 -0.779096 -9.8844 12.4959 -5.63178e-16 -5.66849e-16 -1.27424e-14 
16.1193 92.893 65.2728 -2.33974 0.159327 -56.3533 0 5.07867 -1.15138 -0.831292 -1.71196 -0.88384 0 5.61661 1.07143 -0.324468 -0.562257 -1.19621 -1.02604e-17 5.98978 0.11501 0.0440465 0.891404 -1.14782 -1.10457e-17 6.50583 -0.443523 0.407604 2.80926 -1.20314 -1.97295e-17 7.60548 -1.50593 0.474876 3.23571 -1.2729 -2.53307e-17 9.49737 -0.914492 0.337491 3.74675 -1.48101 -2.90401e-17 10.5513 1.57691 -0.0365762 0.82241 0.104166 -1.29193e-17 4.78644 0.715339 -0.726811 -4.08255 -3.32347 -1.8116e-17 4.82109 0.421791 -1.08408 -5.26838 -1.60358 -2.00958e-17 4.83041 0.765062 0.463672 -2.36427 1.34818 1.23299 -7.60731 7.53374 1.19421 -0.646911 -0.727076 12.9547 3.2495 -3.26872 -13.6938 46.8362 -67.1962 29.2081 0.0598081 0.137039 11.8329 -14.1144 -100.728 24.234 0.0496219 0.113701 -3.00451 -4.66027 0.147389 -1.23299 -7.60729 7.53365 -4.31868 -2.02401 2.96516 -12.9547 3.2495 -3.26872 25.5891 51.4057 48.7726 -29.2081 0.0598081 0.137039 -11.4348 -15.6296 108.373 -24.234 0.0496218 0.113702 3.43969 -25.3371 3.27502 9.23673 -4.20556 2.0327 4.83612 -1.18896 -0.344753 -0.852353 -38.7721 -0.655187 -0.254415 0.949804 -0.0144699 -2.32622 -40.4017 -6.04875 -1.56039 -1.10036 15.4263 0.779096 -9.8844 12.4959 4.22417e-16 -7.82715e-16 2.88531e-33 -9.23673 -4.20556 2.0327 -3.97032 2.23964 13.231 0.852353 -38.7721 -0.655187 0.540524 2.01857 0.0257138 2.32622 -40.4017 -6.04875 1.35596 -0.976575 -15.4257 -0.779096 -9.8844 12.4959 -9.93923e-16 -5.46658e-16 -1.27222e-14 
16.0595 92.8165 65.3889 -2.35644 0.101733 -56.3266 0 5.07867 -1.15138 -0.856406 -1.72979 -0.820385 0 5.61661 1.07143 -0.361186 -0.579619 -1.13197 -1.02604e-17 5.98978 0.11501 0.00772751 0.867462 -1.08108 -1.10457e-17 6.50583 -0.443523 0.368789 2.77528 -1.13266 -1.97295e-17 7.60548 -1.50593 0.454642 3.21787 -1.19702 -2.53307e-17 9.49737 -0.914492 0.347048 3.73383 -1.40692 -2.90401e-17 10.5513 1.57691 -0.0397793 0.82065 0.117392 -1.29193e-17 4.78644 0.715339 -0.806211 -4.01115 -3.55832 -1.8116e-17 4.82109 0.421791 -1.09981 -5.10642 -1.70867 -2.00958e-17 4.83041 0.765062 0.427937 -2.16116 1.30792 1.23299 -7.60731 7.53374 1.20289 -0.602258 -0.748041 12.9547 3.2495 -3.26872 -13.111 47.4808 -67.7505 29.2081 0.0598081 0.137039 11.8475 -14.0362 -100.341 24.234 0.0496219 0.113701 -2.83288 -5.03292 0.505977 -1.23299 -7.60729 7.53365 -4.02505 -1.87249 3.11352 -12.9547 3.2495 -3.26872 25.5146 52.1011 48.2865 -29.2081 0.0598081 0.137039 -11.4818 -15.488 107.644 -24.234 0.0496218 0.113702 3.40757 -25.2252 3.42037 9.23673 -4.20556 2.0327 4.73981 -1.00907 -0.364917 -0.852353 -38.7721 -0.655187 -0.241103 0.900088 -0.0138171 -2.32622 -40.4017 -6.04875 -1.46929 -1.44503 15.4241 0.779096 -9.8844 12.4959 3.72744e-16 -7.84267e-16 1.55228e-18 -9.23673 -4.20556 2.0327 -4.05541 2.31348 13.224 0.852353 -38.7721 -0.655187 0.575908 2.15076 0.0267338 2.32622 -40.4017 -6.04875 1.30992 -1.34614 -15.4367 -0.779096 -9.8844 12.4959 -9.93923e-16 -5.46658e-16 -1.27222e-14 
15.9735 92.7423 65.5157 -2.37334 0.0568461 -56.3292 0 5.07867 -1.15138 -0.872964 -1.77269 -0.735582 0 5.61661 1.07143 -0.394757 -0.614932 -1.04432 -1.02604e-17 5.98978 0.11501 -0.0296001 0.833043 -0.991184 -1.10457e-17 6.50583 -0.443523 0.324382 2.74237 -1.03885 -1.97295e-17 7.60548 -1.50593 0.430019 3.20844 -1.09644 -2.53307e-17 9.49737 -0.914492 0.357236 3.73468 -1.30719 -2.90401e-17 10.5513 1.57691 -0.0426137 0.818199 0.13104 -1.29193e-17 4.78644 0.715339 -0.904199 -3.93829 -3.87176 -1.8116e-17 4.82109 0.421791 -1.11998 -4.91481 -1.84984 -2.00958e-17 4.83041 0.765062 0.406415 -1.86528 1.29316 1.23299 -7.60731 7.53374 1.16586 -0.548583 -0.838404 12.9547 3.2495 -3.26872 -12.8464 47.9795 -68.1524 29.2081 0.0598081 0.137039 11.8606 -13.9628 -99.9793 24.234 0.0496219 0.113701 -2.62152 -6.7158 0.768026 -1.23299 -7.60729 7.53365 -3.70593 -1.71778 3.2693 -12.9547 3.2495 -3.26872 25.1593 52.7467 47.8999 -29.2081 0.0598081 0.137039 -11.518 -15.3741 107.06 -24.234 0.0496218 0.113702 3.46478 -26.4438 3.74201 9.23673 -4.20556 2.0327 4.66201 -0.794344 -0.429985 -0.852353 -38.7721 -0.655187 -0.219304 0.818679 -0.0127231 -2.32622 -40.4017 -6.04875 -1.40621 -1.79981 15.4258 0.779096 -9.8844 12.4959 4.14405e-17 -7.9462e-16 1.19055e-17 -9.23673 -4.20556 2.0327 -4.12388 2.42248 13.2604 0.852353 -38.7721 -0.655187 0.596029 2.22593 0.0272773 2.32622 -40.4017 -6.04875 1.26286 -1.68977 -15.4473 -0.779096 -9.8844 12.4959 -9.93923e-16 -5.46658e-16 -1.27222e-14 
15.8705 92.6794 65.6524 -2.42927 -0.014011 -56.3719 0 5.07867 -1.15138 -0.880565 -1.7874 -0.639952 0 5.61661 1.07143 -0.423452 -0.629096 -0.944183 -1.02604e-17 5.98978 0.11501 -0.0663709 0.808743 -0.889386 -1.10457e-17 6.50583 -0.443523 0.275547 2.70102 -0.932956 -1.97295e-17 7.60548 -1.50593 0.398992 3.17598 -0.982656 -2.53307e-17 9.49737 -0.914492 0.361257 3.70575 -1.19056 -2.90401e-17 10.5513 1.57691 -0.0462103 0.818552 0.14537 -1.29193e-17 4.78644 0.715339 -1.02457 -3.90358 -4.21689 -1.8116e-17 4.82109 0.421791 -1.16872 -4.66371 -2.0072 -2.00958e-17 4.83041 0.765062 0.437734 -1.44272 1.28528 1.23299 -7.60731 7.53374 1.13154 -0.470787 -0.972454 12.9547 3.2495 -3.26872 -12.9075 48.3098 -68.3441 29.2081 0.0598081 0.137039 11.8704 -13.9065 -99.7018 24.234 0.0496219 0.113701 -2.38487 -9.11951 0.889573 -1.23299 -7.60729 7.53365 -3.33932 -1.54351 3.46305 -12.9547 3.2495 -3.26872 25.0703 53.1663 47.2882 -29.2081 0.0598081 0.137039 -11.5371 -15.3125 106.745 -24.234 0.0496218 0.113702 3.5592 -28.3011 4.05746 9.23673 -4.20556 2.0327 4.59552 -0.52381 -0.547251 -0.852353 -38.7721 -0.655187 -0.201524 0.752283 -0.011808 -2.32622 -40.4017 -6.04875 -1.37489 -2.12116 15.4326 0.779096 -9.8844 12.4959 2.48481e-17 -7.95139e-16 1.2424e-17 -9.23673 -4.20556 2.0327 -4.19488 2.5876 13.3731 0.852353 -38.7721 -0.655187 0.61247 2.28735 0.0277019 2.32622 -40.4017 -6.04875 1.21616 -1.97172 -15.4542 -0.779096 -9.8844 12.4959 -6.79208e-16 -5.56493e-16 -1.27419e-14 
